<?xml version="1.0" standalone="no"?>
<!DOCTYPE svg PUBLIC "-//W3C//DTD SVG 20010904//EN"
 "http://www.w3.org/TR/2001/REC-SVG-20010904/DTD/svg10.dtd">
<svg version="1.0" xmlns="http://www.w3.org/2000/svg"
 width="1124.000000pt" height="270.000000pt" viewBox="0 0 1124.000000 270.000000"
 preserveAspectRatio="xMidYMid meet">

<g transform="translate(0.000000,270.000000) scale(0.100000,-0.100000)"
fill="#000000" stroke="none">
<path d="M8644 2669 c-115 -60 -276 -191 -488 -399 -220 -215 -415 -443 -666
-780 -113 -152 -125 -165 -151 -162 -40 4 -105 -27 -164 -80 -27 -24 -93 -76
-145 -115 -52 -38 -160 -123 -240 -187 -239 -194 -308 -213 -302 -82 4 90 94
246 226 394 31 34 56 67 56 73 0 23 -33 20 -59 -5 -25 -24 -29 -25 -41 -11
-27 33 -83 14 -181 -61 -155 -119 -278 -314 -199 -314 20 0 65 36 199 159 50
46 91 80 91 77 0 -4 -18 -37 -40 -73 -58 -96 -83 -168 -84 -239 -1 -75 19
-104 72 -104 60 0 92 22 348 238 55 46 119 98 144 115 l45 31 -31 -39 c-50
-63 -74 -108 -74 -137 0 -65 48 -48 162 59 51 48 106 99 121 113 l28 25 -31
-69 c-79 -178 -111 -347 -76 -414 18 -34 61 -62 98 -62 34 0 116 41 173 87 28
22 109 95 180 163 72 68 145 138 163 154 l33 31 -27 -58 c-23 -53 -25 -61 -11
-74 26 -26 73 -6 146 63 38 35 80 81 95 103 27 39 28 39 59 26 52 -21 182 -37
245 -29 65 8 210 47 252 69 l28 14 -39 -75 c-41 -78 -47 -112 -27 -132 31 -31
59 -13 194 120 129 127 157 148 114 88 -60 -84 -129 -282 -117 -332 11 -42 32
-61 66 -60 43 1 98 38 226 152 124 109 247 209 258 210 4 0 -3 -15 -16 -33
-44 -58 -70 -120 -75 -182 -4 -55 -2 -63 24 -94 26 -32 30 -33 77 -28 58 7
137 50 267 144 140 101 287 203 293 203 4 0 -21 -44 -53 -98 -33 -54 -60 -108
-60 -120 0 -45 37 -23 114 68 90 105 218 217 297 260 54 29 89 38 89 23 0 -4
-27 -52 -60 -107 -102 -174 -140 -286 -121 -354 14 -48 29 -62 66 -62 45 0
122 54 280 195 133 120 255 218 262 211 5 -5 -27 -130 -48 -185 -14 -40 -27
-52 -97 -96 -110 -69 -160 -112 -194 -164 -36 -57 -37 -95 -3 -117 22 -14 32
-15 65 -5 54 16 152 125 219 245 l53 95 97 37 c309 118 491 202 491 227 0 5
-13 -1 -30 -13 -16 -12 -65 -37 -107 -57 -93 -43 -436 -174 -441 -168 -2 2 3
27 11 57 9 29 20 79 27 110 10 52 15 59 60 88 55 35 113 96 107 113 -7 23 -34
31 -66 17 -39 -16 -105 -81 -121 -120 -7 -16 -37 -48 -67 -70 -30 -23 -109
-90 -176 -148 -218 -192 -273 -232 -314 -232 -12 0 -27 9 -33 19 -27 52 5 163
95 323 84 150 91 188 34 188 -54 0 -154 -61 -277 -168 -40 -35 -75 -62 -78
-60 -5 5 124 196 174 258 71 87 220 235 477 475 489 456 725 713 725 791 0 31
-3 34 -28 34 -16 0 -55 -16 -87 -35 -266 -161 -737 -683 -1158 -1283 -81 -116
-93 -128 -194 -199 -59 -42 -157 -112 -218 -154 -138 -98 -211 -137 -268 -145
-39 -6 -46 -3 -61 17 -45 65 12 197 143 330 144 145 248 176 176 52 -14 -23
-21 -43 -16 -43 16 0 61 84 61 113 0 67 -80 55 -185 -28 -38 -30 -113 -88
-165 -129 -52 -40 -147 -119 -210 -175 -135 -120 -188 -159 -228 -167 -107
-21 -40 216 115 409 36 45 70 88 76 95 7 9 6 18 -6 29 -14 14 -30 2 -179 -138
-176 -167 -224 -209 -239 -209 -40 0 54 150 160 255 75 73 86 95 48 95 -15 0
-46 -24 -92 -71 -79 -80 -93 -89 -202 -125 -130 -43 -349 -44 -407 -1 -15 11
-14 18 19 81 28 53 35 79 33 110 -3 35 -7 42 -27 44 -37 6 -67 -16 -93 -65
-13 -24 -55 -77 -93 -116 -140 -143 -478 -457 -528 -490 -94 -63 -157 -67
-193 -12 -13 21 -16 40 -11 98 7 89 41 187 119 338 53 103 66 122 126 171 84
68 799 753 1027 982 174 175 272 292 299 358 14 33 14 38 0 52 -22 23 -45 20
-110 -15z m96 -13 c0 -22 -74 -127 -154 -217 -155 -176 -1136 -1105 -1136
-1076 0 12 228 308 339 441 326 389 741 780 904 851 41 18 47 18 47 1z m2480
-55 c0 -5 -22 -42 -48 -82 -88 -134 -330 -382 -662 -679 -63 -56 -164 -148
-225 -204 l-109 -101 69 90 c304 397 723 836 909 954 52 32 66 37 66 22z
m-3110 -1288 c0 -32 -54 -153 -69 -153 -30 0 -28 95 4 143 32 46 65 51 65 10z
m2734 2 c-8 -19 -103 -89 -111 -81 -9 9 82 96 100 96 10 0 14 -6 11 -15z
m-4218 -53 c-9 -26 -306 -292 -327 -292 -14 0 15 51 64 111 50 61 161 156 221
188 44 23 51 22 42 -7z m705 0 c-10 -19 -111 -118 -217 -215 -110 -99 -151
-113 -99 -35 40 61 150 173 219 224 61 46 115 60 97 26z m682 -98 c17 -22 17
-27 4 -47 -51 -77 -176 -187 -214 -187 -20 0 -15 26 12 71 26 41 163 189 174
189 3 0 14 -12 24 -26z m2536 -316 c-33 -66 -93 -149 -137 -191 -30 -30 -46
-38 -68 -35 -63 7 -26 104 68 175 65 50 150 104 155 99 3 -2 -6 -24 -18 -48z"/>
<path d="M6810 2519 c-62 -11 -187 -77 -295 -154 -49 -35 -209 -160 -355 -276
-376 -301 -502 -380 -675 -419 -82 -19 -97 -20 -120 -7 l-27 13 78 100 c42 54
129 162 193 238 105 126 126 145 226 211 171 113 237 195 182 229 -33 21 -104
-30 -270 -196 -152 -152 -162 -160 -267 -213 -61 -30 -212 -100 -336 -155
-532 -237 -735 -358 -913 -545 -85 -91 -165 -225 -144 -246 6 -6 22 15 46 63
66 133 192 264 367 380 164 108 283 168 720 363 102 45 218 99 259 119 40 21
74 36 76 34 1 -2 -39 -56 -91 -122 -162 -208 -334 -450 -591 -836 -399 -599
-477 -705 -617 -838 -100 -94 -180 -153 -274 -199 -70 -35 -83 -38 -163 -38
-79 0 -90 2 -113 24 -14 14 -26 31 -26 40 0 11 -3 12 -11 4 -16 -16 9 -51 53
-74 114 -59 312 13 522 190 145 122 247 251 552 696 166 243 402 582 480 688
23 32 27 33 91 3 118 -55 298 -266 506 -595 157 -246 244 -359 396 -511 310
-309 676 -467 916 -396 65 19 125 58 125 82 0 20 -13 17 -28 -6 -18 -29 -80
-57 -154 -70 -223 -39 -560 121 -833 394 -141 141 -218 245 -401 536 -176 282
-285 430 -389 528 -42 41 -75 75 -73 76 1 1 37 10 79 20 107 24 253 93 383
180 61 41 239 175 395 296 316 246 367 282 461 330 120 61 219 42 248 -46 l12
-39 -4 39 c-10 80 -92 124 -196 105z m-800 -119 c0 -18 -63 -81 -124 -124
-110 -78 -113 -69 -9 33 91 91 133 119 133 91z"/>
<path d="M2001 2309 c-30 -17 -104 -82 -165 -144 -104 -105 -119 -116 -216
-163 -393 -187 -524 -258 -689 -375 -157 -111 -321 -293 -321 -354 0 -34 26
-28 34 7 8 44 58 112 146 200 133 133 308 246 630 409 118 60 232 116 254 125
l38 16 -44 -53 c-64 -75 -186 -241 -423 -577 -317 -448 -442 -614 -618 -816
l-79 -91 -83 -7 c-101 -8 -189 -32 -273 -75 -150 -76 -239 -232 -166 -290 72
-57 211 12 405 199 l104 100 58 -5 c66 -7 144 -33 482 -165 265 -103 379 -138
565 -176 266 -55 520 -23 658 83 35 26 72 78 72 101 0 24 -16 11 -25 -20 -12
-40 -110 -110 -187 -133 -92 -27 -257 -40 -352 -26 -217 30 -396 87 -811 259
-185 76 -257 102 -393 138 -7 2 42 67 114 151 70 82 287 362 482 623 509 680
656 865 708 889 14 6 23 15 20 20 -6 9 107 121 142 140 62 33 -16 -51 -98
-105 -22 -15 -38 -29 -35 -32 7 -7 134 80 165 113 19 20 22 30 14 43 -18 27
-55 24 -113 -9z m-1561 -1935 c-126 -128 -295 -244 -357 -244 -86 0 -74 91 25
186 59 57 220 111 337 113 l49 1 -54 -56z"/>
<path d="M2555 1342 c-39 -24 -95 -88 -107 -123 -6 -17 -33 -42 -74 -69 -35
-23 -99 -67 -142 -99 -203 -150 -340 -231 -394 -231 -37 0 -68 32 -68 70 0 46
33 123 84 194 55 78 62 83 85 62 41 -37 124 -10 175 57 41 53 49 94 25 118
-25 25 -35 24 -106 -11 -104 -52 -231 -196 -275 -312 -40 -107 -8 -198 70
-198 68 0 134 39 472 280 69 49 127 84 128 79 5 -14 -47 -190 -63 -215 -8 -12
-40 -36 -72 -54 -151 -84 -249 -196 -227 -259 12 -34 53 -48 92 -32 64 27 168
154 235 287 25 49 30 54 99 79 326 122 506 205 516 235 4 12 1 11 -14 -2 -32
-28 -180 -94 -374 -167 -101 -39 -185 -69 -186 -68 -1 1 10 53 25 114 l26 113
51 34 c55 37 104 89 104 111 0 28 -44 32 -85 7z m65 -22 c0 -11 -97 -90 -112
-90 -13 0 27 55 59 80 27 21 53 26 53 10z m-490 -37 c0 -31 -44 -96 -80 -121
-39 -26 -87 -26 -104 0 -13 22 8 45 87 99 64 42 97 50 97 22z m175 -464 c-45
-80 -109 -163 -140 -183 -37 -24 -73 -21 -81 8 -8 32 15 71 73 128 53 51 176
132 181 119 1 -4 -14 -37 -33 -72z"/>
</g>
</svg>
