<?xml version="1.0" standalone="no"?>
<!DOCTYPE svg PUBLIC "-//W3C//DTD SVG 20010904//EN"
 "http://www.w3.org/TR/2001/REC-SVG-20010904/DTD/svg10.dtd">
<svg version="1.0" xmlns="http://www.w3.org/2000/svg"
 width="1585.000000pt" height="363.000000pt" viewBox="0 0 1585.000000 363.000000"
 preserveAspectRatio="xMidYMid meet">

<g transform="translate(0.000000,363.000000) scale(0.100000,-0.100000)"
fill="#000000" stroke="none">
<path d="M11628 3591 c-245 -125 -760 -601 -1132 -1047 -130 -156 -378 -475
-501 -645 l-90 -124 -61 0 c-54 0 -67 -4 -120 -39 -32 -22 -81 -60 -109 -86
-27 -25 -81 -68 -120 -95 -38 -27 -159 -121 -268 -210 -310 -250 -376 -294
-443 -295 -46 0 -64 26 -64 93 0 129 116 332 320 561 34 37 60 75 58 84 -6 31
-39 25 -78 -13 -37 -36 -38 -37 -49 -16 -18 32 -80 28 -150 -9 -75 -40 -205
-152 -281 -242 -108 -129 -150 -248 -87 -248 30 0 56 20 218 167 200 181 201
182 138 82 -67 -107 -116 -223 -131 -309 -23 -131 37 -208 139 -179 57 16 145
78 323 230 237 203 370 305 340 263 -8 -12 -36 -50 -61 -85 -56 -77 -75 -129
-59 -159 27 -51 83 -18 274 163 80 76 146 136 146 133 0 -4 -17 -41 -39 -84
-74 -148 -131 -348 -131 -461 0 -112 61 -186 153 -185 104 1 186 59 475 334
95 91 194 183 219 205 l45 39 -31 -63 c-51 -101 -32 -147 51 -121 32 11 68 39
139 110 52 52 109 112 125 133 l30 39 60 -21 c104 -35 225 -44 340 -27 104 15
243 55 306 87 46 24 55 24 36 2 -27 -31 -76 -126 -91 -178 -17 -59 -8 -92 26
-101 42 -10 84 22 261 195 93 91 160 150 147 131 -44 -68 -140 -276 -155 -336
-9 -34 -16 -85 -16 -114 0 -44 4 -56 29 -81 63 -62 127 -31 356 174 100 90
321 272 353 291 7 4 -10 -26 -37 -68 -88 -136 -115 -267 -68 -337 69 -102 181
-69 474 140 83 60 181 129 217 155 36 25 96 67 133 93 37 26 63 41 58 33 -5
-8 -30 -49 -55 -90 -69 -111 -112 -197 -108 -217 2 -10 13 -19 25 -21 16 -2
41 20 106 95 102 119 233 245 319 308 109 81 218 127 218 93 0 -7 -38 -76 -85
-154 -115 -192 -157 -301 -159 -409 -1 -66 15 -102 58 -130 55 -37 149 22 411
256 141 126 234 206 280 239 17 14 17 12 -3 -20 -79 -122 -122 -250 -108 -323
4 -21 20 -52 36 -70 70 -79 214 -22 530 212 165 122 355 250 358 242 5 -15
-48 -210 -72 -265 -21 -47 -31 -57 -92 -91 -162 -89 -286 -202 -319 -289 -17
-43 -17 -51 -4 -75 23 -41 63 -56 112 -41 84 25 231 198 320 376 19 38 41 75
49 81 7 5 103 44 213 86 343 129 575 237 575 268 0 6 -15 1 -32 -10 -51 -34
-154 -85 -253 -126 -127 -52 -488 -186 -492 -181 -2 1 8 45 21 97 14 52 30
119 36 149 10 52 13 57 69 93 79 51 153 131 149 160 -3 24 -40 34 -84 23 -40
-10 -140 -111 -163 -165 -18 -42 -32 -57 -92 -96 -39 -25 -128 -88 -198 -139
-194 -143 -393 -272 -456 -295 -70 -26 -105 -27 -138 -1 -77 60 -26 209 142
420 l20 25 24 -23 c36 -34 87 -39 141 -12 84 40 167 163 152 224 -9 35 -56 49
-106 32 -61 -21 -123 -61 -198 -128 -38 -35 -98 -84 -133 -110 -35 -26 -134
-108 -219 -184 -292 -258 -375 -318 -432 -312 -101 10 -70 167 93 468 83 154
100 200 79 225 -43 52 -210 -34 -425 -220 -98 -84 -111 -94 -100 -75 37 63
194 290 245 353 89 111 343 363 650 646 321 295 717 691 822 821 139 173 179
262 124 276 -37 9 -89 -12 -184 -76 -368 -246 -997 -953 -1530 -1721 -97 -139
-106 -149 -189 -204 -49 -32 -146 -101 -217 -153 -183 -134 -360 -249 -423
-272 -80 -30 -116 -27 -148 12 -25 29 -27 38 -22 87 16 151 224 413 403 508
90 47 106 13 43 -90 -35 -59 -17 -57 28 2 64 83 49 156 -31 154 -48 -1 -145
-56 -219 -122 -34 -31 -114 -96 -178 -143 -64 -48 -190 -151 -280 -230 -201
-176 -251 -215 -299 -229 -107 -32 -119 90 -27 284 51 108 98 180 194 298 84
103 85 103 77 123 -14 36 -50 13 -200 -131 -277 -266 -374 -347 -392 -328 -9
9 45 112 96 185 25 36 89 109 140 162 95 98 109 128 61 128 -15 0 -57 -35
-125 -102 -115 -115 -154 -136 -334 -185 -132 -35 -313 -38 -415 -5 -102 32
-100 28 -56 102 54 90 77 170 59 207 -10 22 -21 29 -50 31 -32 3 -43 -3 -76
-36 -22 -22 -43 -53 -46 -70 -8 -36 -110 -141 -451 -464 -354 -336 -440 -400
-542 -402 -38 -1 -49 4 -73 31 -69 76 -41 259 76 511 74 160 140 267 181 294
54 37 152 127 563 522 201 194 466 449 590 567 496 477 685 696 678 789 -3 34
-4 35 -48 38 -34 2 -59 -5 -102 -27z m122 -21 c0 -75 -264 -379 -618 -712
-130 -123 -313 -295 -406 -383 -312 -294 -618 -577 -695 -640 -91 -74 353 494
627 805 252 285 647 663 860 822 124 93 232 143 232 108z m3324 -92 c-10 -34
-69 -123 -132 -203 -91 -115 -501 -523 -747 -744 -126 -113 -268 -242 -315
-286 -47 -43 -112 -104 -144 -135 l-59 -55 83 110 c240 316 517 633 805 920
219 219 305 296 420 374 69 47 100 53 89 19z m-4177 -1732 c-3 -32 -19 -81
-42 -127 l-37 -73 -19 23 c-24 29 -25 100 -3 144 23 46 65 87 87 87 18 0 19
-5 14 -54z m4424 27 c-17 -31 -125 -123 -145 -123 -24 0 51 92 98 121 40 25
60 25 47 2z m-655 -37 c8 -21 -32 -106 -69 -145 -58 -61 -139 -79 -178 -40
-11 11 -19 24 -17 28 7 17 126 115 173 142 55 32 83 36 91 15z m-5746 -13 c0
-26 -58 -87 -202 -216 -221 -196 -259 -226 -258 -199 1 18 39 76 89 136 84
101 238 232 316 267 44 20 55 23 55 12z m933 -34 c-18 -32 -314 -313 -389
-369 -39 -30 -64 -38 -64 -21 0 25 96 148 185 237 111 112 212 184 257 184
l29 0 -18 -31z m923 -194 c-47 -68 -190 -205 -238 -229 -82 -41 -90 -15 -26
84 24 36 84 107 136 159 l92 94 29 -39 28 -39 -21 -30z m4155 -343 c-48 -96
-148 -238 -198 -281 -54 -48 -104 -56 -124 -20 -37 69 100 223 293 330 29 16
54 29 56 29 1 0 -11 -26 -27 -58z"/>
<path d="M9110 3371 c-173 -56 -298 -142 -860 -591 -341 -272 -385 -304 -543
-398 -144 -86 -214 -114 -351 -143 -102 -22 -108 -22 -142 -5 l-36 17 28 37
c67 89 300 377 396 491 93 109 117 131 208 187 179 113 310 228 310 274 0 66
-56 79 -132 31 -73 -47 -219 -182 -346 -322 l-117 -128 -165 -80 c-91 -43
-309 -143 -485 -221 -500 -222 -741 -351 -967 -515 -106 -77 -263 -233 -317
-313 -55 -82 -105 -188 -97 -208 9 -24 30 -11 37 23 15 75 129 231 260 358
235 226 446 345 1219 690 151 67 317 143 367 169 51 25 95 46 98 46 3 0 -37
-53 -88 -117 -251 -317 -460 -611 -873 -1233 -498 -747 -610 -899 -798 -1077
-267 -252 -541 -373 -691 -304 -47 21 -90 65 -80 80 3 6 2 11 -3 11 -6 0 -12
-7 -16 -15 -8 -21 49 -83 92 -100 52 -22 186 -19 258 5 185 64 345 171 530
355 190 189 263 284 659 865 219 320 462 670 590 848 59 82 61 83 97 78 99
-11 300 -191 475 -426 56 -74 171 -245 257 -379 243 -379 342 -508 546 -712
388 -388 882 -608 1197 -534 113 27 203 83 203 126 0 27 -5 24 -46 -21 -66
-73 -221 -111 -377 -91 -371 48 -828 349 -1144 753 -109 139 -163 219 -353
523 -252 404 -357 544 -520 698 -50 47 -90 87 -90 90 0 2 21 8 48 12 75 10
241 69 348 123 176 88 354 215 809 572 325 255 385 300 484 360 158 94 267
116 353 68 35 -19 46 -32 59 -70 20 -62 34 -74 25 -23 -23 130 -157 188 -316
136z m-1030 -148 c0 -25 -114 -132 -210 -196 -46 -31 -86 -54 -89 -51 -3 2 40
50 95 105 140 143 204 187 204 142z"/>
<path d="M2717 3121 c-61 -31 -173 -128 -281 -244 l-101 -109 -400 -198 c-529
-263 -720 -385 -921 -587 -147 -148 -221 -270 -185 -306 15 -15 31 2 36 41 6
47 66 133 163 234 138 143 293 261 530 401 99 59 657 344 719 368 16 6 -3 -23
-66 -101 -98 -123 -232 -307 -599 -825 -354 -501 -547 -754 -769 -1011 l-113
-131 -107 -6 c-123 -5 -243 -37 -363 -94 -138 -66 -260 -216 -260 -319 0 -78
69 -118 161 -94 139 37 287 149 561 425 10 10 126 -12 221 -42 45 -14 161 -57
257 -95 598 -239 863 -320 1176 -359 134 -16 343 -7 451 20 183 46 353 165
353 249 0 34 -17 26 -24 -12 -15 -77 -172 -173 -339 -206 -124 -25 -342 -27
-472 -4 -245 42 -455 108 -805 254 -366 152 -515 209 -630 240 -63 17 -115 32
-116 33 -1 1 30 38 68 82 225 255 494 602 1039 1340 210 286 371 491 513 658
79 93 114 126 175 163 164 102 260 180 261 215 1 42 -69 52 -133 20z m84 -49
c-12 -23 -160 -136 -211 -161 -40 -20 134 145 176 167 44 23 50 22 35 -6z
m-2226 -2583 c-44 -45 -125 -117 -180 -161 -177 -141 -280 -184 -337 -138 -32
25 -35 51 -12 105 18 44 93 126 151 167 89 61 246 105 378 107 l80 1 -80 -81z"/>
<path d="M3416 1789 c-53 -36 -110 -104 -126 -153 -8 -26 -31 -47 -98 -91 -48
-32 -130 -90 -182 -129 -271 -200 -466 -316 -535 -316 -88 0 -118 78 -74 194
35 96 173 287 185 258 8 -18 59 -42 91 -42 75 0 188 105 214 198 11 40 10 45
-9 65 -60 59 -225 -29 -373 -200 -177 -204 -222 -426 -99 -491 63 -32 200 25
400 167 310 222 453 321 457 318 6 -7 -54 -230 -75 -277 -16 -39 -29 -51 -90
-84 -266 -146 -408 -345 -286 -403 28 -14 39 -15 76 -4 85 26 238 209 324 387
l34 72 153 57 c351 133 542 217 615 272 49 37 32 39 -22 3 -78 -53 -254 -128
-610 -260 -124 -45 -130 -47 -118 -22 8 14 43 155 67 267 2 12 33 40 69 64 68
45 146 122 146 144 0 46 -69 49 -134 6z m104 -13 c0 -16 -76 -86 -126 -115
-43 -26 -43 -17 1 38 57 71 125 113 125 77z m-658 -61 c-7 -75 -99 -172 -171
-182 -44 -6 -91 15 -91 42 0 16 115 112 180 149 59 34 86 31 82 -9z m242 -607
c-95 -170 -194 -278 -255 -278 -94 0 -47 131 86 239 75 61 209 143 213 131 2
-5 -18 -46 -44 -92z"/>
</g>
</svg>
