<?xml version="1.0" standalone="no"?>
<!DOCTYPE svg PUBLIC "-//W3C//DTD SVG 20010904//EN"
 "http://www.w3.org/TR/2001/REC-SVG-20010904/DTD/svg10.dtd">
<svg version="1.0" xmlns="http://www.w3.org/2000/svg"
 width="1407.000000pt" height="428.000000pt" viewBox="0 0 1407.000000 428.000000"
 preserveAspectRatio="xMidYMid meet">

<g transform="translate(0.000000,428.000000) scale(0.100000,-0.100000)"
fill="#000000" stroke="none">
<path d="M9824 4142 c-1 -223 -55 -445 -164 -667 -203 -416 -656 -887 -1425
-1481 -594 -459 -723 -569 -916 -781 -62 -68 -114 -121 -116 -119 -2 2 8 38
21 80 66 202 105 467 141 954 23 318 45 424 112 554 41 78 95 138 126 138 20
0 20 1 5 16 -11 12 -25 15 -43 10 -40 -10 -116 -92 -160 -171 -56 -102 -88
-148 -186 -265 -158 -191 -367 -378 -609 -545 -214 -148 -363 -267 -472 -376
-65 -64 -118 -111 -118 -104 0 19 103 317 148 430 140 347 395 842 639 1240
132 214 140 225 226 293 337 271 567 524 567 626 0 27 -16 36 -64 36 -96 0
-296 -207 -570 -590 -103 -143 -121 -161 -258 -245 -312 -194 -692 -340 -1258
-485 -320 -81 -692 -222 -905 -342 -280 -159 -519 -383 -634 -599 -51 -95 -76
-166 -92 -264 -15 -92 -1 -176 34 -200 29 -20 33 -12 13 29 -10 21 -16 60 -16
103 0 289 266 643 656 873 278 164 517 258 984 385 477 130 728 216 978 335
113 54 244 125 312 169 13 9 22 12 18 6 -3 -5 -43 -70 -88 -144 -302 -494
-512 -922 -651 -1330 -97 -283 -153 -499 -147 -566 3 -35 6 -40 31 -43 27 -3
27 -3 27 55 0 74 26 129 114 239 88 110 200 205 456 388 264 189 347 253 473
364 90 80 222 222 291 315 16 21 31 35 33 33 3 -3 0 -26 -5 -53 -11 -49 -32
-256 -52 -503 -16 -191 -56 -462 -91 -620 -17 -74 -64 -235 -105 -358 -41
-122 -74 -229 -74 -237 0 -42 64 7 75 56 10 47 77 190 111 236 113 151 339
383 529 541 55 46 268 214 473 374 463 360 647 514 875 738 324 317 501 542
630 804 106 215 190 619 157 755 -22 93 -35 62 -36 -87z m-2284 -190 c0 -54
-150 -244 -295 -376 -164 -148 -233 -199 -195 -145 66 94 211 282 264 343 61
69 202 196 218 196 4 0 8 -8 8 -18z"/>
<path d="M3020 4027 c-84 -35 -263 -161 -425 -298 -195 -164 -623 -629 -850
-922 l-60 -78 -120 7 c-66 4 -126 10 -133 14 -10 5 2 25 43 76 284 350 379
477 372 498 -19 58 -161 -77 -429 -411 l-131 -162 -56 4 c-290 25 -666 25
-846 -1 -169 -24 -385 -116 -385 -164 0 -19 23 -10 59 23 21 19 71 47 112 64
118 49 231 65 509 70 231 4 573 -7 586 -19 3 -3 -39 -66 -94 -139 -277 -375
-485 -720 -610 -1014 -159 -373 -256 -711 -223 -774 23 -42 37 -24 49 67 30
219 193 655 358 954 200 364 370 607 578 828 l66 70 92 -1 c51 0 114 -4 139
-7 l46 -7 -109 -155 c-182 -258 -350 -546 -467 -800 -24 -52 -68 -146 -98
-209 -60 -128 -64 -151 -30 -151 28 0 71 44 122 125 56 89 343 365 380 365 4
0 5 -40 3 -89 -10 -163 19 -243 102 -290 55 -31 164 -31 256 -1 96 32 229 126
368 260 l122 118 12 -28 c9 -20 27 -34 57 -46 38 -14 53 -15 112 -4 91 15 235
70 363 137 100 52 158 93 133 93 -7 0 -34 -13 -60 -28 -226 -131 -489 -206
-537 -153 -33 37 -13 81 74 159 79 73 140 152 140 183 0 23 -30 32 -64 20 -58
-23 -154 -133 -211 -244 -45 -86 -283 -314 -408 -390 -85 -52 -182 -80 -258
-75 -71 5 -105 27 -137 89 -22 41 -23 54 -20 179 l3 135 -41 3 c-35 3 -49 -3
-95 -39 -30 -23 -93 -82 -142 -131 -48 -49 -87 -86 -87 -82 0 22 121 253 196
373 68 110 99 151 133 175 113 78 297 218 460 350 l178 143 134 7 c377 20 669
72 888 160 134 55 156 66 258 133 98 64 235 190 275 252 29 47 38 101 15 101
-7 0 -18 -20 -25 -45 -9 -33 -30 -64 -84 -121 -267 -281 -672 -424 -1272 -451
l-150 -6 226 224 c435 432 788 891 788 1025 0 69 -59 90 -150 51z m83 -62 c-4
-46 -74 -180 -159 -301 -158 -226 -378 -478 -658 -751 l-186 -183 -140 0 -141
0 63 82 c179 236 469 570 653 753 202 200 511 441 555 432 10 -2 14 -13 13
-32z m-1322 -703 c-42 -79 -406 -520 -418 -508 -8 8 261 356 342 444 78 83 93
96 76 64z m-450 -560 c-5 -10 -18 -25 -28 -33 -12 -10 -11 -5 6 19 24 35 38
43 22 14z m691 -36 c-55 -48 -388 -316 -452 -362 -81 -60 -84 -61 -69 -33 25
49 283 417 300 429 4 3 63 4 132 2 l126 -3 -37 -33z m507 -551 c-38 -52 -79
-93 -79 -78 0 11 97 123 107 123 2 0 -10 -20 -28 -45z"/>
<path d="M11205 3956 c-131 -58 -466 -395 -712 -716 -217 -284 -390 -591 -527
-935 l-63 -160 -54 -1 c-72 -2 -112 -21 -184 -84 -111 -96 -428 -230 -548
-230 -67 0 -82 14 -74 71 5 35 17 51 91 121 48 44 98 101 113 125 26 45 26 46
7 60 -26 19 -60 9 -111 -33 -81 -66 -173 -220 -173 -288 0 -35 36 -74 79 -87
72 -22 247 28 441 126 l89 44 -34 -62 c-64 -119 -84 -238 -45 -277 11 -11 33
-20 51 -20 62 0 118 52 229 212 29 43 55 77 56 75 1 -1 -4 -31 -12 -67 -21
-99 -18 -232 5 -279 56 -109 173 -57 424 188 70 68 127 123 127 120 0 -2 -9
-33 -20 -67 -29 -91 -24 -149 14 -174 24 -17 74 -7 112 21 49 36 66 55 149
171 48 68 66 86 60 65 -28 -118 -33 -257 -11 -309 20 -48 63 -78 100 -70 75
15 204 112 365 273 57 57 101 96 98 87 -47 -121 -46 -195 3 -238 42 -39 126
-41 214 -6 95 37 287 161 420 272 27 22 47 36 45 31 -3 -6 -27 -55 -53 -110
-27 -55 -51 -117 -54 -137 -4 -34 -2 -38 18 -38 17 0 69 46 184 163 195 197
363 334 383 313 8 -8 -38 -139 -103 -296 -38 -93 -48 -129 -52 -190 -4 -71 -3
-78 23 -108 15 -18 41 -40 57 -48 91 -47 337 82 562 295 44 42 76 67 71 56 -5
-11 -9 -42 -10 -70 0 -45 2 -50 28 -59 40 -15 114 26 212 117 63 58 75 65 61
39 -32 -63 -190 -329 -249 -420 l-59 -92 -258 -130 c-413 -208 -593 -331 -793
-539 -117 -123 -185 -219 -235 -335 -32 -73 -34 -86 -30 -157 7 -124 48 -163
170 -162 167 1 391 170 699 528 136 159 311 406 455 645 l81 135 79 44 c318
176 669 408 868 571 47 39 86 78 86 86 0 25 -63 -15 -225 -142 -163 -128 -287
-212 -521 -352 -175 -104 -234 -136 -234 -124 0 4 41 80 91 167 50 88 125 225
167 305 107 206 152 283 175 301 24 20 15 39 -19 39 -29 0 -63 -33 -103 -103
-22 -38 -31 -46 -37 -35 -13 22 -48 38 -84 38 -55 0 -109 -39 -243 -173 -306
-307 -508 -447 -643 -447 -57 0 -78 11 -94 50 -26 64 -3 157 99 403 23 55 44
116 47 138 6 34 4 40 -17 47 -61 23 -169 -50 -381 -256 -65 -63 -118 -111
-118 -107 0 14 79 153 143 252 59 93 66 123 28 123 -20 0 -64 -50 -114 -127
-29 -46 -265 -228 -398 -308 -91 -53 -196 -95 -243 -95 -112 0 -92 170 45 372
45 66 48 78 17 78 -16 0 -49 -29 -107 -92 -194 -212 -378 -381 -459 -422 -18
-10 -48 -16 -65 -14 l-32 3 1 125 c1 107 5 143 33 249 42 164 47 174 126 261
364 403 776 941 1103 1438 100 153 145 234 162 290 7 27 6 36 -11 53 -38 38
-103 14 -220 -83 -285 -235 -655 -682 -864 -1043 -92 -159 -241 -485 -289
-631 l-17 -52 -58 1 c-91 1 -139 -32 -303 -207 -260 -278 -419 -410 -487 -404
-50 4 -58 35 -43 168 12 103 56 293 85 361 8 19 64 90 125 159 292 330 630
764 914 1175 286 413 347 533 289 565 -26 13 -49 12 -86 -4z m41 -58 c-10 -49
-47 -116 -161 -288 -255 -385 -563 -816 -745 -1041 -126 -157 -322 -381 -327
-375 -12 11 173 411 281 606 164 297 463 686 718 936 96 94 215 194 231 194 5
0 7 -15 3 -32z m861 -4 c-11 -64 -148 -279 -493 -770 -194 -277 -301 -421
-443 -594 -137 -167 -295 -349 -300 -344 -10 9 147 352 252 549 164 310 395
626 678 927 108 115 280 267 303 268 5 0 6 -16 3 -36z m-2914 -1764 c-18 -31
-93 -109 -93 -98 0 9 99 128 106 128 3 0 -3 -14 -13 -30z m674 -56 c12 -32
-200 -353 -266 -401 -38 -29 -41 -29 -41 2 0 89 97 263 197 354 66 61 98 74
110 45z m861 -5 c4 -19 -125 -235 -190 -316 -50 -64 -104 -110 -115 -99 -12
12 20 119 60 199 49 99 181 241 219 235 13 -2 24 -10 26 -19z m2577 -24 c14
-13 25 -33 25 -43 0 -19 -200 -222 -252 -256 -32 -21 -58 -15 -58 11 0 34 48
118 101 179 57 65 134 134 150 134 6 0 21 -11 34 -25z m-502 -970 c-276 -434
-564 -780 -763 -915 -80 -55 -199 -110 -249 -117 -35 -5 -44 -2 -70 24 -56 57
-51 168 14 301 102 206 378 473 655 634 197 114 517 274 528 263 2 -2 -49 -87
-115 -190z"/>
<path d="M11506 2214 c-20 -20 -20 -30 0 -38 37 -14 54 -7 54 24 0 23 -5 30
-19 30 -11 0 -27 -7 -35 -16z"/>
</g>
</svg>
